<svg id="Layer_1" data-name="Layer 1" xmlns="http://www.w3.org/2000/svg" xmlns:xlink="http://www.w3.org/1999/xlink" viewBox="0 0 500 500"><defs><style>.cls-1{fill:url(#linear-gradient);}.cls-2,.cls-3,.cls-8{fill:#f1f3ff;}.cls-2{opacity:0.3;}.cls-2,.cls-8{isolation:isolate;}.cls-4{fill:url(#linear-gradient-2);}.cls-5{fill:#d6d6d6;}.cls-6{fill:url(#linear-gradient-3);}.cls-7{fill:url(#radial-gradient);}.cls-8{opacity:0.25;}.cls-9{opacity:0.15;}.cls-10{fill:#ee9b00;}.cls-11{fill:#890e00;}.cls-12{fill:#b20e02;}.cls-13{fill:#ec261b;}.cls-14{fill:#f46809;}.cls-15{fill:#f79d0b;}.cls-16{fill:#9a0f08;}.cls-17{fill:#d41c12;}.cls-18{fill:#ae4501;}.cls-19{fill:#d38306;}.cls-20{fill:#01daf9;}.cls-21{fill:#01b2d3;}.cls-22{fill:#37eaff;}.cls-23{fill:#008da9;}.cls-24{fill:#3de8f9;}.cls-25{fill:#22c8d8;}.cls-26{fill:#019abc;}.cls-27{fill:#00e5fd;}.cls-28{fill:#7af3fc;}</style><linearGradient id="linear-gradient" x1="249.99" y1="-1397.17" x2="249.99" y2="-900" gradientTransform="translate(0 1400)" gradientUnits="userSpaceOnUse"><stop offset="0" stop-color="#e5e8ff"/><stop offset="0.03" stop-color="#e6e9ff"/><stop offset="0.3" stop-color="#eceeff"/><stop offset="1" stop-color="#fff"/></linearGradient><linearGradient id="linear-gradient-2" x1="249.99" y1="-1395.33" x2="249.99" y2="-907.57" gradientTransform="translate(0 1400)" gradientUnits="userSpaceOnUse"><stop offset="0" stop-color="#fff"/><stop offset="1" stop-color="#e7eaff"/></linearGradient><linearGradient id="linear-gradient-3" x1="249.99" y1="-1351.27" x2="249.99" y2="-947.83" gradientTransform="translate(0 1400)" gradientUnits="userSpaceOnUse"><stop offset="0" stop-color="#d41c12"/><stop offset="1" stop-color="#22c8d8"/></linearGradient><radialGradient id="radial-gradient" cx="258.28" cy="-1312.47" r="351.08" gradientTransform="translate(0 1393.75) scale(1 0.99)" gradientUnits="userSpaceOnUse"><stop offset="0.31" stop-color="#e7e9ff"/><stop offset="1" stop-color="#fff"/></radialGradient></defs><title>Logo LTD_Final</title><ellipse class="cls-1" cx="249.99" cy="251.41" rx="249.94" ry="248.59"/><path class="cls-2" d="M250,492.4C113.45,492.4,2.2,383.39.15,247.61v3.77C1.72,388.66,114.89,498.69,252.92,497.12,388.73,495.59,498.45,386.46,500,251.38v-3.77C497.89,383.44,386.57,492.43,250,492.4Z"/><path class="cls-3" d="M250,12.2c136.2,0,247.32,108.45,249.88,243.88v-4.67C501.44,114.13,390.82,1.58,252.79,0S1.59,108.48,0,245.76c0,1.88,0,3.77,0,5.65v4.67C2.58,120.61,113.76,12.14,250,12.2Z"/><ellipse class="cls-4" cx="249.99" cy="251.41" rx="248.75" ry="247.39"/><ellipse class="cls-5" cx="249.99" cy="251.41" rx="225.82" ry="224.59"/><ellipse class="cls-6" cx="249.99" cy="251.41" rx="214.84" ry="213.67"/><ellipse class="cls-7" cx="249.99" cy="251.41" rx="206.77" ry="205.65"/><path class="cls-8" d="M250,438.9C154,438.9,75.93,368.36,73.43,276v4.51c0,94.53,79.08,171.12,176.63,171.12S426.71,375,426.71,280.47V276C424.09,368.36,346,438.9,250,438.9Z"/><g class="cls-9"><polygon class="cls-10" points="264.89 96.59 187.62 96.59 226.48 164.26 264.89 96.59"/><polygon class="cls-10" points="226.22 164.26 148.95 164.26 187.85 231.96 226.22 164.26"/><polygon class="cls-10" points="187.62 231.96 110.32 231.96 149.21 299.66 187.62 231.96"/><polygon class="cls-10" points="148.95 299.66 71.72 299.66 110.54 367.33 148.95 299.66"/><polygon class="cls-10" points="226.22 299.66 148.95 299.66 187.85 367.33 226.22 299.66"/><polygon class="cls-10" points="148.95 164.26 226.22 164.26 187.36 96.59 148.95 164.26"/><polygon class="cls-10" points="110.32 231.96 187.62 231.96 148.73 164.26 110.32 231.96"/><polygon class="cls-10" points="71.72 299.66 148.95 299.66 110.09 231.96 71.72 299.66"/><polygon class="cls-10" points="110.32 367.33 187.62 367.33 148.73 299.66 110.32 367.33"/><polygon class="cls-10" points="341.41 164.26 264.14 164.26 303 231.96 341.41 164.26"/><polygon class="cls-10" points="380.05 231.96 302.75 231.96 341.64 299.66 380.05 231.96"/><polygon class="cls-10" points="341.8 299.66 264.5 299.66 303.36 367.33 341.8 299.66"/><polygon class="cls-10" points="419.04 299.66 341.8 299.66 380.63 367.33 419.04 299.66"/><polygon class="cls-10" points="264.14 164.26 341.41 164.26 302.52 96.59 264.14 164.26"/><polygon class="cls-10" points="303.13 231.96 380.4 231.96 341.54 164.26 303.13 231.96"/><polygon class="cls-10" points="341.8 299.66 419.04 299.66 380.18 231.96 341.8 299.66"/><polygon class="cls-10" points="264.14 299.66 341.41 299.66 302.52 231.96 264.14 299.66"/><polygon class="cls-10" points="225.9 367.33 303.13 367.33 264.24 299.66 225.9 367.33"/></g><polygon class="cls-11" points="270.46 100.78 192.09 100.78 231.53 169.44 270.46 100.78"/><polygon class="cls-12" points="231.27 169.44 152.94 169.44 192.35 238.08 231.27 169.44"/><polygon class="cls-13" points="192.09 238.08 113.75 238.08 153.16 306.72 192.09 238.08"/><polygon class="cls-14" points="152.94 306.72 74.56 306.72 113.98 375.35 152.94 306.72"/><polygon class="cls-15" points="231.27 306.72 152.94 306.72 192.35 375.35 231.27 306.72"/><polygon class="cls-16" points="152.94 169.44 231.27 169.44 191.86 100.78 152.94 169.44"/><polygon class="cls-17" points="113.75 238.08 192.09 238.08 152.68 169.44 113.75 238.08"/><polygon class="cls-18" points="74.56 306.72 152.94 306.72 113.52 238.08 74.56 306.72"/><polygon class="cls-19" points="113.75 375.35 192.09 375.35 152.68 306.72 113.75 375.35"/><polygon class="cls-20" points="348.08 169.44 269.75 169.44 309.16 238.08 348.08 169.44"/><polygon class="cls-21" points="387.27 238.08 308.9 238.08 348.31 306.72 387.27 238.08"/><polygon class="cls-22" points="348.5 306.72 270.07 306.72 309.55 375.35 348.5 306.72"/><polygon class="cls-23" points="426.84 306.72 348.5 306.72 387.92 375.35 426.84 306.72"/><polygon class="cls-24" points="269.75 169.44 348.08 169.44 308.67 100.78 269.75 169.44"/><polygon class="cls-25" points="309.29 238.08 387.66 238.08 348.25 169.44 309.29 238.08"/><polygon class="cls-26" points="348.5 306.72 426.84 306.72 387.43 238.08 348.5 306.72"/><polygon class="cls-27" points="269.75 306.72 348.08 306.72 308.67 238.08 269.75 306.72"/><polygon class="cls-28" points="230.95 375.35 309.29 375.35 269.88 306.72 230.95 375.35"/></svg>