<svg width="20" height="20" viewBox="0 0 20 20" fill="none" xmlns="http://www.w3.org/2000/svg">
<path d="M16.4917 12.4418C14.775 14.1502 12.3167 14.6752 10.1584 14.0002L6.23337 17.9168C5.95004 18.2085 5.39171 18.3835 4.99171 18.3252L3.17504 18.0752C2.57504 17.9918 2.01671 17.4252 1.92504 16.8252L1.67504 15.0085C1.61671 14.6085 1.80837 14.0502 2.08337 13.7668L6.00004 9.85018C5.33337 7.68351 5.85004 5.22518 7.56671 3.51685C10.025 1.05851 14.0167 1.05851 16.4834 3.51685C18.95 5.97518 18.95 9.98351 16.4917 12.4418Z" stroke="#777E90" stroke-width="1.5" stroke-miterlimit="10" stroke-linecap="round" stroke-linejoin="round"/>
<path d="M5.7417 14.575L7.65837 16.4916" stroke="#777E90" stroke-width="1.5" stroke-miterlimit="10" stroke-linecap="round" stroke-linejoin="round"/>
<path d="M12.0834 9.1665C12.7737 9.1665 13.3334 8.60686 13.3334 7.9165C13.3334 7.22615 12.7737 6.6665 12.0834 6.6665C11.393 6.6665 10.8334 7.22615 10.8334 7.9165C10.8334 8.60686 11.393 9.1665 12.0834 9.1665Z" stroke="#777E90" stroke-width="1.5" stroke-linecap="round" stroke-linejoin="round"/>
</svg>
